<svg xmlns="http://www.w3.org/2000/svg" viewBox="0 0 572.25 409.14"><title>triangle</title><g id="Layer_2" data-name="Layer 2"><g id="Free_Geometric_Logo_Background_5" data-name="Free Geometric Logo Background 5"><g id="Triangle"><path d="M288.58,1.28l142,202.18,141.13,201a3,3,0,0,1-2.46,4.72H3a3,3,0,0,1-2.45-4.72l141.12-201,142-202.18a3,3,0,0,1,4.91,0Z" fill="#dfdfe5" fill-rule="evenodd"/><path d="M288.17,43,406.51,212l118.35,169,2.75,3.92h-483l2.74-3.92L165.74,212,284.09,43l2-2.92,2,2.92ZM402.43,214.89,286.13,48.76,169.82,214.89,54.22,380H518Z" fill="#699" fill-rule="evenodd"/></g><rect x="161.02" y="272.35" width="249.21" height="7.55" fill="#5dac75"/></g></g></svg>